<?xml version="1.0" standalone="no"?>
<!DOCTYPE svg PUBLIC "-//W3C//DTD SVG 20010904//EN"
 "http://www.w3.org/TR/2001/REC-SVG-20010904/DTD/svg10.dtd">
<svg version="1.0" xmlns="http://www.w3.org/2000/svg"
 width="685.000000pt" height="65.000000pt" viewBox="0 0 685.000000 65.000000"
 preserveAspectRatio="xMidYMid meet">

<g transform="translate(0.000000,65.000000) scale(0.100000,-0.100000)"
fill="#FFFFFF" stroke="none">
<path d="M0 325 l0 -325 75 0 75 0 0 125 0 125 700 0 700 0 0 200 0 200 -775
0 -775 0 0 -325z m1400 125 l0 -50 -625 0 -625 0 0 50 0 50 625 0 625 0 0 -50z"/>
<path d="M1680 325 l0 -325 75 0 75 0 0 325 0 325 -75 0 -75 0 0 -325z"/>
<path d="M1980 325 l0 -325 80 0 80 0 0 231 c0 216 1 231 18 226 9 -2 303
-106 652 -231 452 -161 646 -226 677 -226 l43 0 0 325 0 325 -75 0 -75 0 0
-231 c0 -215 -1 -231 -17 -227 -10 3 -304 107 -654 232 -485 172 -646 226
-682 226 l-47 0 0 -325z"/>
<path d="M3657 643 c-4 -3 -7 -39 -7 -80 l0 -73 350 0 350 0 0 -245 0 -245 75
0 75 0 0 245 0 245 350 0 351 0 -3 78 -3 77 -766 3 c-421 1 -769 -1 -772 -5z"/>
<path d="M5310 325 l0 -325 770 0 770 0 0 325 0 325 -770 0 -770 0 0 -325z
m1390 0 l0 -175 -620 0 -620 0 0 175 0 175 620 0 620 0 0 -175z"/>
</g>
</svg>
