<?xml version="1.0" encoding="UTF-8" standalone="no"?>
<!DOCTYPE svg PUBLIC "-//W3C//DTD SVG 1.1//EN" "http://www.w3.org/Graphics/SVG/1.1/DTD/svg11.dtd">
<svg xmlns="http://www.w3.org/2000/svg" version="1.1" viewBox="0.00 0.00 566.00 339.00">
<path fill="#000000" d="
  M 145.18 192.18
  C 144.38 190.68 142.83 190.25 141.99 189.20
  Q 140.32 187.12 139.77 184.34
  A 0.93 0.91 60.3 0 1 139.98 183.55
  L 153.03 168.72
  A 2.04 2.04 0.0 0 1 156.17 168.82
  C 165.92 181.41 180.77 189.72 194.64 197.99
  A 0.90 0.89 35.9 0 1 194.86 199.35
  L 181.33 214.64
  A 1.71 1.69 -36.4 0 0 181.05 216.45
  C 189.75 235.94 198.91 255.95 205.83 275.75
  Q 208.41 283.12 210.31 291.59
  C 210.97 294.52 211.06 297.93 211.72 301.22
  A 2.53 2.52 -28.5 0 1 211.04 303.50
  Q 205.56 309.05 199.72 314.96
  C 198.48 316.21 196.60 315.51 195.98 313.83
  C 195.14 311.56 195.06 309.42 194.40 307.06
  C 193.82 304.97 194.08 302.92 193.57 300.86
  C 193.19 299.34 193.13 297.85 192.60 296.43
  Q 182.12 268.19 169.29 240.92
  A 0.38 0.38 0.0 0 0 168.66 240.84
  Q 160.77 250.25 151.38 258.29
  Q 148.13 261.07 144.61 262.37
  Q 139.50 264.27 134.12 265.11
  Q 129.82 265.77 123.37 265.20
  Q 106.88 263.74 90.41 262.00
  Q 89.74 261.93 89.78 262.60
  L 91.97 304.72
  A 1.09 1.09 0.0 0 1 91.70 305.49
  Q 85.98 311.91 80.31 318.31
  Q 79.58 319.13 79.10 319.07
  A 2.35 2.34 -87.0 0 1 77.06 316.80
  C 76.96 312.73 77.09 308.89 76.63 304.74
  C 75.85 297.70 76.25 290.88 75.43 283.73
  C 74.84 278.58 75.19 273.82 74.37 268.46
  C 73.83 264.91 74.60 261.25 72.84 257.92
  Q 72.61 257.49 72.15 257.39
  C 58.48 254.47 45.00 246.22 44.98 230.74
  Q 44.97 227.50 46.60 224.38
  Q 52.23 213.61 62.44 206.87
  C 65.00 205.18 68.42 205.25 70.57 203.05
  Q 70.93 202.68 70.89 202.16
  Q 69.79 189.98 69.94 177.77
  C 70.00 172.46 69.32 167.12 69.13 161.74
  C 69.06 159.62 69.96 158.31 71.52 157.11
  A 1.62 1.61 -38.1 0 0 71.80 154.84
  L 60.91 141.04
  Q 60.55 140.58 60.52 141.16
  C 60.39 144.01 59.60 146.50 60.35 149.45
  C 61.01 152.04 60.27 154.45 60.01 157.03
  C 58.69 170.05 49.22 182.56 39.45 191.11
  A 1.27 1.24 21.5 0 1 38.78 191.39
  L 32.99 191.92
  Q 32.54 191.96 32.27 191.60
  Q 30.70 189.57 32.58 187.32
  Q 35.29 184.08 44.69 172.21
  A 1.43 1.40 -26.4 0 0 45.00 171.33
  C 44.98 162.85 45.32 153.64 44.52 145.88
  Q 43.09 131.99 38.62 118.82
  Q 36.79 113.41 30.69 100.48
  Q 18.83 75.33 10.35 50.70
  Q 9.74 48.95 10.60 46.79
  C 14.43 37.09 18.11 27.03 23.07 17.85
  A 0.47 0.47 0.0 0 1 23.90 17.87
  Q 24.23 18.57 24.60 19.59
  C 36.19 51.63 51.23 82.39 68.59 111.67
  C 78.64 128.63 90.14 143.84 103.63 158.37
  Q 112.43 167.84 122.45 175.05
  C 130.21 180.62 136.88 187.16 144.93 192.41
  Q 145.52 192.80 145.18 192.18
  Z
  M 142.86 223.75
  Q 138.10 229.53 133.17 235.21
  C 131.23 237.45 129.77 236.91 127.58 235.22
  Q 125.05 233.28 122.71 232.33
  Q 106.01 225.57 88.42 219.52
  A 1.06 1.06 0.0 0 0 87.05 220.81
  C 88.93 227.72 87.54 235.10 88.45 242.24
  Q 88.51 242.75 88.94 243.05
  Q 91.76 245.04 94.50 245.43
  Q 112.01 247.91 138.27 250.18
  Q 146.42 250.88 152.90 248.43
  Q 158.17 246.43 159.52 241.22
  Q 160.15 238.77 159.14 235.88
  Q 158.06 232.82 156.63 230.93
  C 147.78 219.27 134.86 209.54 122.05 201.41
  Q 120.37 200.34 118.67 198.83
  C 111.51 192.44 103.55 186.88 95.93 181.05
  C 92.26 178.24 89.40 174.17 85.54 171.11
  Q 84.97 170.66 84.99 171.39
  C 85.06 175.21 84.93 178.92 85.33 182.86
  Q 86.26 192.01 85.97 201.16
  A 0.67 0.66 1.2 0 0 86.64 201.85
  C 92.84 201.84 98.77 201.72 104.68 204.11
  Q 128.48 213.73 138.07 218.41
  Q 140.19 219.44 142.87 222.95
  Q 143.19 223.36 142.86 223.75
  Z
  M 72.41 237.06
  A 0.41 0.41 0.0 0 0 73.00 236.69
  C 72.91 231.85 71.91 227.23 71.93 222.31
  Q 71.93 221.30 70.83 219.40
  Q 70.60 219.00 70.14 219.00
  Q 65.47 218.97 61.08 220.54
  A 1.82 1.81 77.2 0 0 59.89 222.44
  C 60.59 228.97 66.74 234.15 72.41 237.06
  Z"
/>
<path fill="#000000" d="
  M 448.92 299.59
  Q 447.25 298.01 448.02 300.17
  Q 448.90 302.65 449.64 305.30
  C 450.14 307.12 450.01 308.72 450.03 310.57
  Q 450.03 311.09 449.72 311.50
  Q 442.73 320.70 433.96 328.19
  Q 432.98 329.03 432.23 327.98
  C 428.80 323.19 426.36 318.38 420.41 315.32
  Q 412.78 311.39 404.56 308.83
  Q 376.35 300.06 347.23 296.96
  Q 345.95 296.82 347.01 297.55
  Q 358.79 305.65 371.16 312.75
  A 0.89 0.89 0.0 0 1 371.28 314.20
  L 356.49 326.46
  A 2.92 2.92 0.0 0 1 353.19 326.75
  Q 333.02 315.33 314.74 300.28
  Q 307.59 294.39 302.11 287.03
  C 298.40 282.05 295.71 275.46 292.88 269.57
  Q 284.03 251.12 278.22 231.52
  Q 277.16 227.95 276.46 224.43
  Q 275.76 220.83 275.18 217.23
  C 274.49 212.98 273.56 209.35 274.69 204.96
  Q 276.81 196.65 278.45 188.23
  Q 278.59 187.53 277.99 187.93
  Q 259.76 200.29 239.07 207.87
  Q 238.57 208.05 238.64 208.58
  C 239.02 211.61 240.03 213.69 240.10 215.97
  Q 240.12 216.47 240.32 216.94
  C 241.13 218.74 240.95 220.54 241.49 222.36
  C 242.09 224.35 241.93 226.39 242.37 228.24
  C 242.70 229.61 242.95 230.74 242.99 232.28
  Q 243.04 234.54 243.66 238.99
  Q 244.19 242.79 243.98 252.52
  C 243.65 267.04 239.70 281.41 233.97 294.70
  Q 233.47 295.86 232.89 298.40
  C 231.54 304.37 220.35 311.88 214.58 315.02
  Q 214.10 315.27 213.63 315.02
  Q 212.89 314.62 212.31 313.97
  Q 211.94 313.56 212.16 313.06
  Q 218.12 298.94 222.57 284.30
  Q 223.75 280.41 224.15 276.39
  Q 224.76 270.10 224.18 250.57
  Q 223.94 242.85 222.55 236.57
  Q 219.93 224.79 215.66 213.48
  A 0.61 0.60 74.3 0 0 214.99 213.10
  C 210.88 213.83 205.65 215.65 201.60 214.08
  A 1.29 1.29 0.0 0 1 201.17 211.95
  L 209.69 203.67
  Q 210.00 203.37 209.78 203.00
  L 198.25 183.98
  Q 197.96 183.51 197.48 183.27
  Q 173.35 171.24 151.49 155.53
  Q 149.90 154.39 145.14 152.89
  C 143.51 152.37 142.53 151.42 141.14 150.50
  A 1.82 1.81 32.5 0 1 140.59 148.04
  C 144.13 142.18 148.68 134.46 153.81 129.59
  A 1.52 1.50 32.1 0 1 155.32 129.25
  Q 159.52 130.61 163.10 132.95
  Q 182.55 145.66 202.00 158.38
  C 204.57 160.06 207.61 161.66 210.36 163.40
  Q 210.82 163.69 211.27 163.38
  Q 211.99 162.88 212.90 163.00
  Q 213.46 163.07 213.79 163.52
  L 216.27 166.91
  A 0.83 0.81 -15.8 0 0 216.86 167.23
  Q 218.56 167.33 218.24 168.77
  Q 218.14 169.23 218.38 169.63
  L 233.10 194.50
  A 1.08 1.08 0.0 0 0 234.28 195.01
  C 237.16 194.35 240.19 193.99 242.91 193.00
  Q 262.54 185.90 279.33 175.58
  C 287.15 170.78 294.24 162.03 299.61 154.50
  Q 300.46 153.31 301.64 154.17
  L 303.23 155.33
  Q 304.46 156.23 303.74 157.58
  Q 298.99 166.45 297.01 175.25
  Q 296.51 177.43 296.19 178.22
  Q 296.01 178.65 296.02 179.11
  Q 296.04 181.03 295.14 182.74
  A 1.52 1.51 57.1 0 0 294.97 183.55
  C 295.18 186.06 294.11 188.07 293.98 190.23
  C 293.60 196.68 293.80 202.73 295.19 209.25
  C 299.82 230.96 308.98 252.08 319.32 271.64
  C 320.77 274.37 322.49 276.60 324.43 278.90
  A 0.30 0.30 0.0 0 0 324.92 278.85
  Q 331.36 266.53 340.29 255.76
  Q 357.53 234.97 375.08 214.42
  C 376.95 212.23 378.41 209.59 380.02 207.18
  A 0.46 0.46 0.0 0 0 379.63 206.46
  C 377.37 206.51 375.69 206.56 373.29 206.16
  C 372.14 205.98 370.93 206.24 369.90 206.18
  C 360.65 205.66 351.30 205.41 342.32 203.61
  C 334.47 202.04 326.50 200.40 318.95 197.57
  A 1.50 1.50 0.0 0 1 318.23 195.33
  Q 325.10 185.13 333.35 175.35
  Q 334.13 174.42 335.08 173.71
  Q 335.49 173.40 336.00 173.50
  Q 356.24 177.52 376.68 180.39
  C 378.47 180.65 380.14 180.06 381.94 179.96
  A 0.44 0.44 0.0 0 0 382.24 179.22
  C 378.63 175.25 374.23 170.49 372.11 165.51
  A 1.08 1.04 47.9 0 1 372.14 164.60
  Q 380.10 149.15 389.54 134.57
  A 0.71 0.71 0.0 0 1 390.80 134.69
  C 393.57 141.57 399.17 146.55 401.99 153.33
  Q 404.86 160.25 405.70 167.70
  Q 406.04 170.79 405.11 174.20
  Q 404.18 177.58 403.18 180.86
  Q 403.04 181.30 403.50 181.22
  Q 419.53 178.38 435.26 174.94
  Q 440.71 173.75 443.77 171.74
  C 451.26 166.81 456.44 157.48 459.74 149.38
  C 461.39 145.33 463.38 142.49 465.79 139.17
  Q 466.07 138.78 466.54 138.88
  C 471.70 139.89 463.26 158.00 461.91 160.66
  Q 453.43 177.37 440.25 194.73
  C 438.34 197.25 437.40 197.13 434.84 198.20
  Q 431.02 199.80 427.15 201.29
  Q 423.36 202.74 419.15 203.38
  Q 403.82 205.71 388.45 207.73
  Q 387.95 207.80 387.63 208.19
  Q 370.80 229.09 353.79 249.75
  C 347.07 257.90 343.27 264.09 341.96 273.23
  C 341.46 276.76 343.76 277.10 346.64 277.02
  C 371.35 276.26 396.50 282.29 420.42 288.40
  Q 420.91 288.52 420.95 288.02
  C 421.34 283.50 420.24 278.78 420.21 275.01
  Q 420.12 266.48 420.17 257.96
  Q 420.18 257.46 420.47 257.06
  Q 427.38 247.39 435.37 238.63
  C 436.79 237.08 436.92 233.83 437.27 232.10
  Q 440.10 217.98 446.69 205.20
  Q 447.78 203.08 448.04 200.63
  C 449.74 185.15 457.18 171.14 464.96 157.92
  Q 479.01 134.05 489.89 117.13
  Q 496.83 106.33 507.07 97.72
  C 510.99 94.42 515.58 92.19 520.21 89.82
  Q 523.89 87.94 526.41 87.99
  C 543.30 88.35 551.59 129.09 554.08 141.36
  Q 554.95 145.61 555.03 151.25
  C 555.26 165.65 556.05 178.02 555.88 196.30
  Q 555.84 201.18 554.73 205.55
  Q 550.73 221.28 543.50 240.48
  C 532.30 270.21 510.01 297.32 479.47 307.78
  C 468.96 311.38 456.55 306.80 448.92 299.59
  Z
  M 467.62 247.80
  A 0.68 0.68 0.0 0 1 466.70 247.67
  C 461.53 241.32 455.71 233.76 453.36 226.11
  Q 453.20 225.59 452.67 225.77
  Q 452.43 225.85 452.24 226.08
  Q 451.98 226.38 452.00 226.99
  Q 452.20 233.94 451.45 240.82
  Q 451.04 244.57 451.54 247.65
  Q 453.08 257.04 455.45 266.26
  Q 456.97 272.14 460.25 277.22
  C 460.77 278.03 463.15 278.61 464.23 279.67
  C 469.96 285.31 476.41 288.85 484.46 289.18
  Q 488.53 289.34 493.25 287.45
  C 504.62 282.88 516.45 275.19 523.24 264.98
  Q 525.64 261.37 527.94 255.14
  C 531.29 246.09 535.09 236.73 537.61 227.43
  Q 538.88 222.74 538.98 221.25
  C 539.26 216.82 536.85 213.53 538.82 208.92
  Q 539.02 208.46 538.81 207.99
  Q 537.28 204.63 538.89 200.25
  Q 539.42 198.79 538.07 197.00
  A 0.74 0.74 0.0 0 1 538.06 196.11
  C 539.76 193.75 538.26 191.65 538.07 189.69
  Q 537.87 187.45 537.27 185.25
  Q 537.13 184.76 537.34 184.29
  C 538.59 181.52 537.36 179.65 537.01 177.32
  C 535.06 164.29 528.24 132.04 511.57 129.91
  Q 508.32 129.49 503.47 131.23
  Q 497.51 133.36 495.54 134.56
  Q 482.77 142.34 473.17 157.68
  C 471.08 161.02 467.11 166.81 467.07 170.77
  Q 467.03 174.38 466.05 181.25
  C 464.04 195.38 474.92 214.88 482.85 226.34
  A 1.50 1.49 43.3 0 1 482.90 227.95
  Q 476.59 238.37 468.24 247.24
  Q 467.91 247.60 467.62 247.80
  Z"
/>
<path fill="#000000" d="
  M 193.56 143.29
  Q 178.87 134.80 164.99 124.79
  A 1.66 1.66 0.0 0 1 164.49 122.68
  C 168.35 115.25 172.50 107.22 177.59 100.93
  A 2.10 2.09 -53.7 0 1 180.37 100.50
  C 194.49 109.90 207.84 119.98 221.74 128.74
  A 3.11 3.10 -59.8 0 1 222.82 132.83
  Q 217.53 142.70 209.98 150.99
  Q 209.34 151.68 208.50 151.27
  Q 201.12 147.66 193.56 143.29
  Z"
/>
</svg>
